<?xml version="1.0" encoding="utf-8"?>
<!DOCTYPE svg PUBLIC "-//W3C//DTD SVG 1.1//EN" "http://www.w3.org/Graphics/SVG/1.1/DTD/svg11.dtd">
<svg version="1.1" id="Layer_1" xmlns="http://www.w3.org/2000/svg" xmlns:xlink="http://www.w3.org/1999/xlink" x="0px" y="0px"
width="2277px" height="2277px" viewBox="0 0 2277 2277" enable-background="new 0 0 2277 2277" xml:space="preserve">
<g transform="translate(138,138)"><g><defs>
    <radialGradient id="grad">
    <stop offset="5%" stop-color="rgb(235,47,47)" />
    <stop offset="95%" stop-color="rgb(93,53,194)" />
    </radialGradient>
<mask id="gmask"><g>
<g transform="translate(552,0) scale(0.69,0.69)"><g transform="" style="fill: rgb(255, 255, 255);">
<g>
	<path d="M100,0v100H0V40.625L100,0z"/>
</g>
</g></g><g transform="translate(828,0) scale(0.69,0.69)"><g transform="" style="fill: rgb(255, 255, 255);">
<g>
	<path d="M95,64.062c0,8.556-3.019,15.851-9.053,21.885S72.618,95,64.062,95H35.938c-8.554,0-15.85-3.019-21.884-9.053
		S5,72.618,5,64.062V35.938c0-8.554,3.018-15.85,9.053-21.884S27.383,5,35.938,5h28.125c8.556,0,15.851,3.018,21.885,9.053
		S95,27.383,95,35.938V64.062z"/>
</g>
</g></g><g transform="translate(1035,0) scale(0.69,0.69)"><g transform="" style="fill: rgb(255, 255, 255);">
<g>
	<path d="M100,34.375V0H34.375C24.87,0,16.764,3.353,10.059,10.059S0,24.87,0,34.375V100h100V34.375z"/>
</g>
</g></g><g transform="translate(1104,0) scale(0.69,0.69)"><g transform="" style="fill: rgb(255, 255, 255);">
<rect width="100" height="100"/>
</g></g><g transform="translate(1173,0) scale(0.69,0.69)"><g transform="" style="fill: rgb(255, 255, 255);">
<rect width="100" height="100"/>
</g></g><g transform="translate(1242,0) scale(0.69,0.69)"><g transform="" style="fill: rgb(255, 255, 255);">
<rect width="100" height="100"/>
</g></g><g transform="translate(1311,0) scale(0.69,0.69)"><g transform="" style="fill: rgb(255, 255, 255);">
<rect width="100" height="100"/>
</g></g><g transform="translate(1380,0) scale(0.69,0.69)"><g transform="" style="fill: rgb(255, 255, 255);">
<g>
	<path d="M100,34.375c0-9.505-3.354-17.611-10.059-24.316S75.131,0,65.625,0H0v100h100V34.375z"/>
</g>
</g></g><g transform="translate(552,69) scale(0.69,0.69)"><g transform="" style="fill: rgb(255, 255, 255);">
<g>
	<path d="M0,100V0h100v59.375L0,100z"/>
</g>
</g></g><g transform="translate(690,69) scale(0.69,0.69)"><g transform="" style="fill: rgb(255, 255, 255);">
<g>
	<path d="M0,0h100v100H40.625L0,0z"/>
</g>
</g></g><g transform="translate(759,69) scale(0.69,0.69)"><g transform="" style="fill: rgb(255, 255, 255);">
<g>
	<path d="M100,100H0V0h59.375L100,100z"/>
</g>
</g></g><g transform="translate(966,69) scale(0.69,0.69)"><g transform="" style="fill: rgb(255, 255, 255);">
<g>
	<path d="M100,34.375V0H34.375C24.87,0,16.764,3.353,10.059,10.059S0,24.87,0,34.375V100h100V34.375z"/>
</g>
</g></g><g transform="translate(1035,69) scale(0.69,0.69)"><g transform="" style="fill: rgb(255, 255, 255);">
<rect width="100" height="100"/>
</g></g><g transform="translate(1173,69) scale(0.69,0.69)"><g transform="" style="fill: rgb(255, 255, 255);">
<g>
	<path d="M0,100V0h100v59.375L0,100z"/>
</g>
</g></g><g transform="translate(1380,69) scale(0.69,0.69)"><g transform="" style="fill: rgb(255, 255, 255);">
<rect width="100" height="100"/>
</g></g><g transform="translate(897,138) scale(0.69,0.69)"><g transform="" style="fill: rgb(255, 255, 255);">
<g>
	<path d="M0,0h100v100H40.625L0,0z"/>
</g>
</g></g><g transform="translate(966,138) scale(0.69,0.69)"><g transform="" style="fill: rgb(255, 255, 255);">
<rect width="100" height="100"/>
</g></g><g transform="translate(1035,138) scale(0.69,0.69)"><g transform="" style="fill: rgb(255, 255, 255);">
<g>
	<path d="M100,0H0v100h65.625c9.506,0,17.611-3.354,24.316-10.059S100,75.131,100,65.625V0z"/>
</g>
</g></g><g transform="translate(1242,138) scale(0.69,0.69)"><g transform="" style="fill: rgb(255, 255, 255);">
<g>
	<path d="M95,64.062c0,8.556-3.019,15.851-9.053,21.885S72.618,95,64.062,95H35.938c-8.554,0-15.85-3.019-21.884-9.053
		S5,72.618,5,64.062V35.938c0-8.554,3.018-15.85,9.053-21.884S27.383,5,35.938,5h28.125c8.556,0,15.851,3.018,21.885,9.053
		S95,27.383,95,35.938V64.062z"/>
</g>
</g></g><g transform="translate(1380,138) scale(0.69,0.69)"><g transform="" style="fill: rgb(255, 255, 255);">
<g>
	<path d="M0,100V0h100v59.375L0,100z"/>
</g>
</g></g><g transform="translate(552,207) scale(0.69,0.69)"><g transform="" style="fill: rgb(255, 255, 255);">
<g>
	<path d="M95,64.062c0,8.556-3.019,15.851-9.053,21.885S72.618,95,64.062,95H35.938c-8.554,0-15.85-3.019-21.884-9.053
		S5,72.618,5,64.062V35.938c0-8.554,3.018-15.85,9.053-21.884S27.383,5,35.938,5h28.125c8.556,0,15.851,3.018,21.885,9.053
		S95,27.383,95,35.938V64.062z"/>
</g>
</g></g><g transform="translate(828,207) scale(0.69,0.69)"><g transform="" style="fill: rgb(255, 255, 255);">
<g>
	<path d="M95,64.062c0,8.556-3.019,15.851-9.053,21.885S72.618,95,64.062,95H35.938c-8.554,0-15.85-3.019-21.884-9.053
		S5,72.618,5,64.062V35.938c0-8.554,3.018-15.85,9.053-21.884S27.383,5,35.938,5h28.125c8.556,0,15.851,3.018,21.885,9.053
		S95,27.383,95,35.938V64.062z"/>
</g>
</g></g><g transform="translate(1104,207) scale(0.69,0.69)"><g transform="" style="fill: rgb(255, 255, 255);">
<g>
	<path d="M0,0h100v100H40.625L0,0z"/>
</g>
</g></g><g transform="translate(1173,207) scale(0.69,0.69)"><g transform="" style="fill: rgb(255, 255, 255);">
<g>
	<path d="M100,100H0V0h59.375L100,100z"/>
</g>
</g></g><g transform="translate(1311,207) scale(0.69,0.69)"><g transform="" style="fill: rgb(255, 255, 255);">
<g>
	<path d="M100,0v100H0V40.625L100,0z"/>
</g>
</g></g><g transform="translate(621,276) scale(0.69,0.69)"><g transform="" style="fill: rgb(255, 255, 255);">
<g>
	<path d="M100,0v100H0V40.625L100,0z"/>
</g>
</g></g><g transform="translate(759,276) scale(0.69,0.69)"><g transform="" style="fill: rgb(255, 255, 255);">
<g>
	<path d="M100,0v100H0V40.625L100,0z"/>
</g>
</g></g><g transform="translate(897,276) scale(0.69,0.69)"><g transform="" style="fill: rgb(255, 255, 255);">
<g>
	<path d="M95,64.062c0,8.556-3.019,15.851-9.053,21.885S72.618,95,64.062,95H35.938c-8.554,0-15.85-3.019-21.884-9.053
		S5,72.618,5,64.062V35.938c0-8.554,3.018-15.85,9.053-21.884S27.383,5,35.938,5h28.125c8.556,0,15.851,3.018,21.885,9.053
		S95,27.383,95,35.938V64.062z"/>
</g>
</g></g><g transform="translate(1311,276) scale(0.69,0.69)"><g transform="" style="fill: rgb(255, 255, 255);">
<rect width="100" height="100"/>
</g></g><g transform="translate(1380,276) scale(0.69,0.69)"><g transform="" style="fill: rgb(255, 255, 255);">
<g>
	<path d="M100,100H0V0h59.375L100,100z"/>
</g>
</g></g><g transform="translate(621,345) scale(0.69,0.69)"><g transform="" style="fill: rgb(255, 255, 255);">
<g>
	<path d="M0,100V0h100v59.375L0,100z"/>
</g>
</g></g><g transform="translate(759,345) scale(0.69,0.69)"><g transform="" style="fill: rgb(255, 255, 255);">
<g>
	<path d="M0,100V0h100v59.375L0,100z"/>
</g>
</g></g><g transform="translate(966,345) scale(0.69,0.69)"><g transform="" style="fill: rgb(255, 255, 255);">
<g>
	<path d="M100,0v100H0V40.625L100,0z"/>
</g>
</g></g><g transform="translate(1173,345) scale(0.69,0.69)"><g transform="" style="fill: rgb(255, 255, 255);">
<g>
	<path d="M0,0h100v100H40.625L0,0z"/>
</g>
</g></g><g transform="translate(1242,345) scale(0.69,0.69)"><g transform="" style="fill: rgb(255, 255, 255);">
<rect width="100" height="100"/>
</g></g><g transform="translate(1311,345) scale(0.69,0.69)"><g transform="" style="fill: rgb(255, 255, 255);">
<g>
	<path d="M100,0H0v100h65.625c9.506,0,17.611-3.354,24.316-10.059S100,75.131,100,65.625V0z"/>
</g>
</g></g><g transform="translate(552,414) scale(0.69,0.69)"><g transform="" style="fill: rgb(255, 255, 255);">
<g>
	<path d="M100,0v100H0V40.625L100,0z"/>
</g>
</g></g><g transform="translate(690,414) scale(0.69,0.69)"><g transform="" style="fill: rgb(255, 255, 255);">
<g>
	<path d="M100,0v100H0V40.625L100,0z"/>
</g>
</g></g><g transform="translate(828,414) scale(0.69,0.69)"><g transform="" style="fill: rgb(255, 255, 255);">
<g>
	<path d="M95,64.062c0,8.556-3.019,15.851-9.053,21.885S72.618,95,64.062,95H35.938c-8.554,0-15.85-3.019-21.884-9.053
		S5,72.618,5,64.062V35.938c0-8.554,3.018-15.85,9.053-21.884S27.383,5,35.938,5h28.125c8.556,0,15.851,3.018,21.885,9.053
		S95,27.383,95,35.938V64.062z"/>
</g>
</g></g><g transform="translate(966,414) scale(0.69,0.69)"><g transform="" style="fill: rgb(255, 255, 255);">
<rect width="100" height="100"/>
</g></g><g transform="translate(1104,414) scale(0.69,0.69)"><g transform="" style="fill: rgb(255, 255, 255);">
<g>
	<path d="M95,64.062c0,8.556-3.019,15.851-9.053,21.885S72.618,95,64.062,95H35.938c-8.554,0-15.85-3.019-21.884-9.053
		S5,72.618,5,64.062V35.938c0-8.554,3.018-15.85,9.053-21.884S27.383,5,35.938,5h28.125c8.556,0,15.851,3.018,21.885,9.053
		S95,27.383,95,35.938V64.062z"/>
</g>
</g></g><g transform="translate(1242,414) scale(0.69,0.69)"><g transform="" style="fill: rgb(255, 255, 255);">
<rect width="100" height="100"/>
</g></g><g transform="translate(1380,414) scale(0.69,0.69)"><g transform="" style="fill: rgb(255, 255, 255);">
<g>
	<path d="M100,0v100H0V40.625L100,0z"/>
</g>
</g></g><g transform="translate(552,483) scale(0.69,0.69)"><g transform="" style="fill: rgb(255, 255, 255);">
<g>
	<path d="M0,100V0h100v59.375L0,100z"/>
</g>
</g></g><g transform="translate(690,483) scale(0.69,0.69)"><g transform="" style="fill: rgb(255, 255, 255);">
<g>
	<path d="M0,100V0h100v59.375L0,100z"/>
</g>
</g></g><g transform="translate(897,483) scale(0.69,0.69)"><g transform="" style="fill: rgb(255, 255, 255);">
<g>
	<path d="M100,34.375V0H34.375C24.87,0,16.764,3.353,10.059,10.059S0,24.87,0,34.375V100h100V34.375z"/>
</g>
</g></g><g transform="translate(966,483) scale(0.69,0.69)"><g transform="" style="fill: rgb(255, 255, 255);">
<rect width="100" height="100"/>
</g></g><g transform="translate(1173,483) scale(0.69,0.69)"><g transform="" style="fill: rgb(255, 255, 255);">
<g>
	<path d="M100,34.375V0H34.375C24.87,0,16.764,3.353,10.059,10.059S0,24.87,0,34.375V100h100V34.375z"/>
</g>
</g></g><g transform="translate(1242,483) scale(0.69,0.69)"><g transform="" style="fill: rgb(255, 255, 255);">
<rect width="100" height="100"/>
</g></g><g transform="translate(1311,483) scale(0.69,0.69)"><g transform="" style="fill: rgb(255, 255, 255);">
<rect width="100" height="100"/>
</g></g><g transform="translate(1380,483) scale(0.69,0.69)"><g transform="" style="fill: rgb(255, 255, 255);">
<g>
	<path d="M100,0H0v100h65.625c9.506,0,17.611-3.354,24.316-10.059S100,75.131,100,65.625V0z"/>
</g>
</g></g><g transform="translate(0,552) scale(0.69,0.69)"><g transform="" style="fill: rgb(255, 255, 255);">
<g>
	<path d="M100,0v100H0V40.625L100,0z"/>
</g>
</g></g><g transform="translate(138,552) scale(0.69,0.69)"><g transform="" style="fill: rgb(255, 255, 255);">
<g>
	<path d="M100,34.375V0H34.375C24.87,0,16.764,3.353,10.059,10.059S0,24.87,0,34.375V100h100V34.375z"/>
</g>
</g></g><g transform="translate(207,552) scale(0.69,0.69)"><g transform="" style="fill: rgb(255, 255, 255);">
<g>
	<path d="M100,100H0V0h59.375L100,100z"/>
</g>
</g></g><g transform="translate(345,552) scale(0.69,0.69)"><g transform="" style="fill: rgb(255, 255, 255);">
<g>
	<path d="M0,0h100v100H40.625L0,0z"/>
</g>
</g></g><g transform="translate(414,552) scale(0.69,0.69)"><g transform="" style="fill: rgb(255, 255, 255);">
<rect width="100" height="100"/>
</g></g><g transform="translate(483,552) scale(0.69,0.69)"><g transform="" style="fill: rgb(255, 255, 255);">
<g>
	<path d="M100,34.375c0-9.505-3.354-17.611-10.059-24.316S75.131,0,65.625,0H0v100h100V34.375z"/>
</g>
</g></g><g transform="translate(828,552) scale(0.69,0.69)"><g transform="" style="fill: rgb(255, 255, 255);">
<g>
	<path d="M100,34.375V0H34.375C24.87,0,16.764,3.353,10.059,10.059S0,24.87,0,34.375V100h100V34.375z"/>
</g>
</g></g><g transform="translate(897,552) scale(0.69,0.69)"><g transform="" style="fill: rgb(255, 255, 255);">
<rect width="100" height="100"/>
</g></g><g transform="translate(966,552) scale(0.69,0.69)"><g transform="" style="fill: rgb(255, 255, 255);">
<g>
	<path d="M100,0H0v100h65.625c9.506,0,17.611-3.354,24.316-10.059S100,75.131,100,65.625V0z"/>
</g>
</g></g><g transform="translate(1104,552) scale(0.69,0.69)"><g transform="" style="fill: rgb(255, 255, 255);">
<g>
	<path d="M100,34.375V0H34.375C24.87,0,16.764,3.353,10.059,10.059S0,24.87,0,34.375V100h100V34.375z"/>
</g>
</g></g><g transform="translate(1173,552) scale(0.69,0.69)"><g transform="" style="fill: rgb(255, 255, 255);">
<rect width="100" height="100"/>
</g></g><g transform="translate(1311,552) scale(0.69,0.69)"><g transform="" style="fill: rgb(255, 255, 255);">
<rect width="100" height="100"/>
</g></g><g transform="translate(1518,552) scale(0.69,0.69)"><g transform="" style="fill: rgb(255, 255, 255);">
<g>
	<path d="M100,0v100H0V40.625L100,0z"/>
</g>
</g></g><g transform="translate(1725,552) scale(0.69,0.69)"><g transform="" style="fill: rgb(255, 255, 255);">
<g>
	<path d="M95,64.062c0,8.556-3.019,15.851-9.053,21.885S72.618,95,64.062,95H35.938c-8.554,0-15.85-3.019-21.884-9.053
		S5,72.618,5,64.062V35.938c0-8.554,3.018-15.85,9.053-21.884S27.383,5,35.938,5h28.125c8.556,0,15.851,3.018,21.885,9.053
		S95,27.383,95,35.938V64.062z"/>
</g>
</g></g><g transform="translate(1863,552) scale(0.69,0.69)"><g transform="" style="fill: rgb(255, 255, 255);">
<g>
	<path d="M0,0h100v100H40.625L0,0z"/>
</g>
</g></g><g transform="translate(1932,552) scale(0.69,0.69)"><g transform="" style="fill: rgb(255, 255, 255);">
<g>
	<path d="M100,34.375c0-9.505-3.354-17.611-10.059-24.316S75.131,0,65.625,0H0v100h100V34.375z"/>
</g>
</g></g><g transform="translate(0,621) scale(0.69,0.69)"><g transform="" style="fill: rgb(255, 255, 255);">
<rect width="100" height="100"/>
</g></g><g transform="translate(69,621) scale(0.69,0.69)"><g transform="" style="fill: rgb(255, 255, 255);">
<rect width="100" height="100"/>
</g></g><g transform="translate(138,621) scale(0.69,0.69)"><g transform="" style="fill: rgb(255, 255, 255);">
<g>
	<path d="M100,0H0v100h65.625c9.506,0,17.611-3.354,24.316-10.059S100,75.131,100,65.625V0z"/>
</g>
</g></g><g transform="translate(276,621) scale(0.69,0.69)"><g transform="" style="fill: rgb(255, 255, 255);">
<g>
	<path d="M95,64.062c0,8.556-3.019,15.851-9.053,21.885S72.618,95,64.062,95H35.938c-8.554,0-15.85-3.019-21.884-9.053
		S5,72.618,5,64.062V35.938c0-8.554,3.018-15.85,9.053-21.884S27.383,5,35.938,5h28.125c8.556,0,15.851,3.018,21.885,9.053
		S95,27.383,95,35.938V64.062z"/>
</g>
</g></g><g transform="translate(483,621) scale(0.69,0.69)"><g transform="" style="fill: rgb(255, 255, 255);">
<g>
	<path d="M0,100V0h100v59.375L0,100z"/>
</g>
</g></g><g transform="translate(621,621) scale(0.69,0.69)"><g transform="" style="fill: rgb(255, 255, 255);">
<g>
	<path d="M100,34.375V0H34.375C24.87,0,16.764,3.353,10.059,10.059S0,24.87,0,34.375V100h100V34.375z"/>
</g>
</g></g><g transform="translate(690,621) scale(0.69,0.69)"><g transform="" style="fill: rgb(255, 255, 255);">
<rect width="100" height="100"/>
</g></g><g transform="translate(759,621) scale(0.69,0.69)"><g transform="" style="fill: rgb(255, 255, 255);">
<rect width="100" height="100"/>
</g></g><g transform="translate(828,621) scale(0.69,0.69)"><g transform="" style="fill: rgb(255, 255, 255);">
<rect width="100" height="100"/>
</g></g><g transform="translate(1035,621) scale(0.69,0.69)"><g transform="" style="fill: rgb(255, 255, 255);">
<g>
	<path d="M100,34.375V0H34.375C24.87,0,16.764,3.353,10.059,10.059S0,24.87,0,34.375V100h100V34.375z"/>
</g>
</g></g><g transform="translate(1104,621) scale(0.69,0.69)"><g transform="" style="fill: rgb(255, 255, 255);">
<rect width="100" height="100"/>
</g></g><g transform="translate(1173,621) scale(0.69,0.69)"><g transform="" style="fill: rgb(255, 255, 255);">
<rect width="100" height="100"/>
</g></g><g transform="translate(1242,621) scale(0.69,0.69)"><g transform="" style="fill: rgb(255, 255, 255);">
<rect width="100" height="100"/>
</g></g><g transform="translate(1311,621) scale(0.69,0.69)"><g transform="" style="fill: rgb(255, 255, 255);">
<rect width="100" height="100"/>
</g></g><g transform="translate(1380,621) scale(0.69,0.69)"><g transform="" style="fill: rgb(255, 255, 255);">
<rect width="100" height="100"/>
</g></g><g transform="translate(1449,621) scale(0.69,0.69)"><g transform="" style="fill: rgb(255, 255, 255);">
<rect width="100" height="100"/>
</g></g><g transform="translate(1518,621) scale(0.69,0.69)"><g transform="" style="fill: rgb(255, 255, 255);">
<rect width="100" height="100"/>
</g></g><g transform="translate(1587,621) scale(0.69,0.69)"><g transform="" style="fill: rgb(255, 255, 255);">
<rect width="100" height="100"/>
</g></g><g transform="translate(1656,621) scale(0.69,0.69)"><g transform="" style="fill: rgb(255, 255, 255);">
<g>
	<path d="M100,100H0V0h59.375L100,100z"/>
</g>
</g></g><g transform="translate(1932,621) scale(0.69,0.69)"><g transform="" style="fill: rgb(255, 255, 255);">
<g>
	<path d="M0,100V0h100v59.375L0,100z"/>
</g>
</g></g><g transform="translate(0,690) scale(0.69,0.69)"><g transform="" style="fill: rgb(255, 255, 255);">
<rect width="100" height="100"/>
</g></g><g transform="translate(207,690) scale(0.69,0.69)"><g transform="" style="fill: rgb(255, 255, 255);">
<g>
	<path d="M95,64.062c0,8.556-3.019,15.851-9.053,21.885S72.618,95,64.062,95H35.938c-8.554,0-15.85-3.019-21.884-9.053
		S5,72.618,5,64.062V35.938c0-8.554,3.018-15.85,9.053-21.884S27.383,5,35.938,5h28.125c8.556,0,15.851,3.018,21.885,9.053
		S95,27.383,95,35.938V64.062z"/>
</g>
</g></g><g transform="translate(414,690) scale(0.69,0.69)"><g transform="" style="fill: rgb(255, 255, 255);">
<g>
	<path d="M95,64.062c0,8.556-3.019,15.851-9.053,21.885S72.618,95,64.062,95H35.938c-8.554,0-15.85-3.019-21.884-9.053
		S5,72.618,5,64.062V35.938c0-8.554,3.018-15.85,9.053-21.884S27.383,5,35.938,5h28.125c8.556,0,15.851,3.018,21.885,9.053
		S95,27.383,95,35.938V64.062z"/>
</g>
</g></g><g transform="translate(621,690) scale(0.69,0.69)"><g transform="" style="fill: rgb(255, 255, 255);">
<g>
	<path d="M100,0H0v65.625c0,9.506,3.353,17.611,10.059,24.316S24.87,100,34.375,100H100V0z"/>
</g>
</g></g><g transform="translate(690,690) scale(0.69,0.69)"><g transform="" style="fill: rgb(255, 255, 255);">
<rect width="100" height="100"/>
</g></g><g transform="translate(828,690) scale(0.69,0.69)"><g transform="" style="fill: rgb(255, 255, 255);">
<rect width="100" height="100"/>
</g></g><g transform="translate(966,690) scale(0.69,0.69)"><g transform="" style="fill: rgb(255, 255, 255);">
<g>
	<path d="M100,34.375V0H34.375C24.87,0,16.764,3.353,10.059,10.059S0,24.87,0,34.375V100h100V34.375z"/>
</g>
</g></g><g transform="translate(1035,690) scale(0.69,0.69)"><g transform="" style="fill: rgb(255, 255, 255);">
<rect width="100" height="100"/>
</g></g><g transform="translate(1242,690) scale(0.69,0.69)"><g transform="" style="fill: rgb(255, 255, 255);">
<rect width="100" height="100"/>
</g></g><g transform="translate(1518,690) scale(0.69,0.69)"><g transform="" style="fill: rgb(255, 255, 255);">
<rect width="100" height="100"/>
</g></g><g transform="translate(1587,690) scale(0.69,0.69)"><g transform="" style="fill: rgb(255, 255, 255);">
<rect width="100" height="100"/>
</g></g><g transform="translate(1794,690) scale(0.69,0.69)"><g transform="" style="fill: rgb(255, 255, 255);">
<g>
	<path d="M0,0h100v100H40.625L0,0z"/>
</g>
</g></g><g transform="translate(1863,690) scale(0.69,0.69)"><g transform="" style="fill: rgb(255, 255, 255);">
<g>
	<path d="M100,100H0V0h59.375L100,100z"/>
</g>
</g></g><g transform="translate(0,759) scale(0.69,0.69)"><g transform="" style="fill: rgb(255, 255, 255);">
<rect width="100" height="100"/>
</g></g><g transform="translate(138,759) scale(0.69,0.69)"><g transform="" style="fill: rgb(255, 255, 255);">
<g>
	<path d="M95,64.062c0,8.556-3.019,15.851-9.053,21.885S72.618,95,64.062,95H35.938c-8.554,0-15.85-3.019-21.884-9.053
		S5,72.618,5,64.062V35.938c0-8.554,3.018-15.85,9.053-21.884S27.383,5,35.938,5h28.125c8.556,0,15.851,3.018,21.885,9.053
		S95,27.383,95,35.938V64.062z"/>
</g>
</g></g><g transform="translate(276,759) scale(0.69,0.69)"><g transform="" style="fill: rgb(255, 255, 255);">
<g>
	<path d="M100,34.375V0H34.375C24.87,0,16.764,3.353,10.059,10.059S0,24.87,0,34.375V100h100V34.375z"/>
</g>
</g></g><g transform="translate(345,759) scale(0.69,0.69)"><g transform="" style="fill: rgb(255, 255, 255);">
<g>
	<path d="M100,34.375c0-9.505-3.354-17.611-10.059-24.316S75.131,0,65.625,0H0v100h100V34.375z"/>
</g>
</g></g><g transform="translate(552,759) scale(0.69,0.69)"><g transform="" style="fill: rgb(255, 255, 255);">
<g>
	<path d="M95,64.062c0,8.556-3.019,15.851-9.053,21.885S72.618,95,64.062,95H35.938c-8.554,0-15.85-3.019-21.884-9.053
		S5,72.618,5,64.062V35.938c0-8.554,3.018-15.85,9.053-21.884S27.383,5,35.938,5h28.125c8.556,0,15.851,3.018,21.885,9.053
		S95,27.383,95,35.938V64.062z"/>
</g>
</g></g><g transform="translate(690,759) scale(0.69,0.69)"><g transform="" style="fill: rgb(255, 255, 255);">
<rect width="100" height="100"/>
</g></g><g transform="translate(828,759) scale(0.69,0.69)"><g transform="" style="fill: rgb(255, 255, 255);">
<g>
	<path d="M100,0H0v65.625c0,9.506,3.353,17.611,10.059,24.316S24.87,100,34.375,100H100V0z"/>
</g>
</g></g><g transform="translate(897,759) scale(0.69,0.69)"><g transform="" style="fill: rgb(255, 255, 255);">
<rect width="100" height="100"/>
</g></g><g transform="translate(966,759) scale(0.69,0.69)"><g transform="" style="fill: rgb(255, 255, 255);">
<rect width="100" height="100"/>
</g></g><g transform="translate(1035,759) scale(0.69,0.69)"><g transform="" style="fill: rgb(255, 255, 255);">
<g>
	<path d="M100,0H0v100h65.625c9.506,0,17.611-3.354,24.316-10.059S100,75.131,100,65.625V0z"/>
</g>
</g></g><g transform="translate(1242,759) scale(0.69,0.69)"><g transform="" style="fill: rgb(255, 255, 255);">
<g>
	<path d="M100,0H0v65.625c0,9.506,3.353,17.611,10.059,24.316S24.87,100,34.375,100H100V0z"/>
</g>
</g></g><g transform="translate(1311,759) scale(0.69,0.69)"><g transform="" style="fill: rgb(255, 255, 255);">
<rect width="100" height="100"/>
</g></g><g transform="translate(1380,759) scale(0.69,0.69)"><g transform="" style="fill: rgb(255, 255, 255);">
<rect width="100" height="100"/>
</g></g><g transform="translate(1449,759) scale(0.69,0.69)"><g transform="" style="fill: rgb(255, 255, 255);">
<rect width="100" height="100"/>
</g></g><g transform="translate(1518,759) scale(0.69,0.69)"><g transform="" style="fill: rgb(255, 255, 255);">
<rect width="100" height="100"/>
</g></g><g transform="translate(1587,759) scale(0.69,0.69)"><g transform="" style="fill: rgb(255, 255, 255);">
<rect width="100" height="100"/>
</g></g><g transform="translate(1932,759) scale(0.69,0.69)"><g transform="" style="fill: rgb(255, 255, 255);">
<g>
	<path d="M95,64.062c0,8.556-3.019,15.851-9.053,21.885S72.618,95,64.062,95H35.938c-8.554,0-15.85-3.019-21.884-9.053
		S5,72.618,5,64.062V35.938c0-8.554,3.018-15.85,9.053-21.884S27.383,5,35.938,5h28.125c8.556,0,15.851,3.018,21.885,9.053
		S95,27.383,95,35.938V64.062z"/>
</g>
</g></g><g transform="translate(0,828) scale(0.69,0.69)"><g transform="" style="fill: rgb(255, 255, 255);">
<g>
	<path d="M0,100V0h100v59.375L0,100z"/>
</g>
</g></g><g transform="translate(276,828) scale(0.69,0.69)"><g transform="" style="fill: rgb(255, 255, 255);">
<g>
	<path d="M100,0H0v65.625c0,9.506,3.353,17.611,10.059,24.316S24.87,100,34.375,100H100V0z"/>
</g>
</g></g><g transform="translate(345,828) scale(0.69,0.69)"><g transform="" style="fill: rgb(255, 255, 255);">
<rect width="100" height="100"/>
</g></g><g transform="translate(414,828) scale(0.69,0.69)"><g transform="" style="fill: rgb(255, 255, 255);">
<rect width="100" height="100"/>
</g></g><g transform="translate(483,828) scale(0.69,0.69)"><g transform="" style="fill: rgb(255, 255, 255);">
<g>
	<path d="M100,34.375c0-9.505-3.354-17.611-10.059-24.316S75.131,0,65.625,0H0v100h100V34.375z"/>
</g>
</g></g><g transform="translate(621,828) scale(0.69,0.69)"><g transform="" style="fill: rgb(255, 255, 255);">
<g>
	<path d="M100,34.375V0H34.375C24.87,0,16.764,3.353,10.059,10.059S0,24.87,0,34.375V100h100V34.375z"/>
</g>
</g></g><g transform="translate(690,828) scale(0.69,0.69)"><g transform="" style="fill: rgb(255, 255, 255);">
<rect width="100" height="100"/>
</g></g><g transform="translate(759,828) scale(0.69,0.69)"><g transform="" style="fill: rgb(255, 255, 255);">
<g>
	<path d="M100,100H0V0h59.375L100,100z"/>
</g>
</g></g><g transform="translate(1380,828) scale(0.69,0.69)"><g transform="" style="fill: rgb(255, 255, 255);">
<g>
	<path d="M0,100V0h100v59.375L0,100z"/>
</g>
</g></g><g transform="translate(1587,828) scale(0.69,0.69)"><g transform="" style="fill: rgb(255, 255, 255);">
<g>
	<path d="M0,100V0h100v59.375L0,100z"/>
</g>
</g></g><g transform="translate(1725,828) scale(0.69,0.69)"><g transform="" style="fill: rgb(255, 255, 255);">
<g>
	<path d="M0,0h100v100H40.625L0,0z"/>
</g>
</g></g><g transform="translate(1794,828) scale(0.69,0.69)"><g transform="" style="fill: rgb(255, 255, 255);">
<g>
	<path d="M100,34.375c0-9.505-3.354-17.611-10.059-24.316S75.131,0,65.625,0H0v100h100V34.375z"/>
</g>
</g></g><g transform="translate(207,897) scale(0.69,0.69)"><g transform="" style="fill: rgb(255, 255, 255);">
<g>
	<path d="M95,64.062c0,8.556-3.019,15.851-9.053,21.885S72.618,95,64.062,95H35.938c-8.554,0-15.85-3.019-21.884-9.053
		S5,72.618,5,64.062V35.938c0-8.554,3.018-15.85,9.053-21.884S27.383,5,35.938,5h28.125c8.556,0,15.851,3.018,21.885,9.053
		S95,27.383,95,35.938V64.062z"/>
</g>
</g></g><g transform="translate(345,897) scale(0.69,0.69)"><g transform="" style="fill: rgb(255, 255, 255);">
<g>
	<path d="M0,100V0h100v59.375L0,100z"/>
</g>
</g></g><g transform="translate(483,897) scale(0.69,0.69)"><g transform="" style="fill: rgb(255, 255, 255);">
<g>
	<path d="M0,100V0h100v59.375L0,100z"/>
</g>
</g></g><g transform="translate(621,897) scale(0.69,0.69)"><g transform="" style="fill: rgb(255, 255, 255);">
<rect width="100" height="100"/>
</g></g><g transform="translate(690,897) scale(0.69,0.69)"><g transform="" style="fill: rgb(255, 255, 255);">
<g>
	<path d="M100,0H0v100h65.625c9.506,0,17.611-3.354,24.316-10.059S100,75.131,100,65.625V0z"/>
</g>
</g></g><g transform="translate(897,897) scale(0.69,0.69)"><g transform="" style="fill: rgb(255, 255, 255);">
<g>
	<path d="M95,64.062c0,8.556-3.019,15.851-9.053,21.885S72.618,95,64.062,95H35.938c-8.554,0-15.85-3.019-21.884-9.053
		S5,72.618,5,64.062V35.938c0-8.554,3.018-15.85,9.053-21.884S27.383,5,35.938,5h28.125c8.556,0,15.851,3.018,21.885,9.053
		S95,27.383,95,35.938V64.062z"/>
</g>
</g></g><g transform="translate(1173,897) scale(0.69,0.69)"><g transform="" style="fill: rgb(255, 255, 255);">
<g>
	<path d="M0,0h100v100H40.625L0,0z"/>
</g>
</g></g><g transform="translate(1242,897) scale(0.69,0.69)"><g transform="" style="fill: rgb(255, 255, 255);">
<rect width="100" height="100"/>
</g></g><g transform="translate(1311,897) scale(0.69,0.69)"><g transform="" style="fill: rgb(255, 255, 255);">
<g>
	<path d="M100,34.375c0-9.505-3.354-17.611-10.059-24.316S75.131,0,65.625,0H0v100h100V34.375z"/>
</g>
</g></g><g transform="translate(1449,897) scale(0.69,0.69)"><g transform="" style="fill: rgb(255, 255, 255);">
<g>
	<path d="M0,0h100v100H40.625L0,0z"/>
</g>
</g></g><g transform="translate(1518,897) scale(0.69,0.69)"><g transform="" style="fill: rgb(255, 255, 255);">
<g>
	<path d="M100,100H0V0h59.375L100,100z"/>
</g>
</g></g><g transform="translate(1794,897) scale(0.69,0.69)"><g transform="" style="fill: rgb(255, 255, 255);">
<rect width="100" height="100"/>
</g></g><g transform="translate(1863,897) scale(0.69,0.69)"><g transform="" style="fill: rgb(255, 255, 255);">
<rect width="100" height="100"/>
</g></g><g transform="translate(1932,897) scale(0.69,0.69)"><g transform="" style="fill: rgb(255, 255, 255);">
<g>
	<path d="M100,34.375c0-9.505-3.354-17.611-10.059-24.316S75.131,0,65.625,0H0v100h100V34.375z"/>
</g>
</g></g><g transform="translate(138,966) scale(0.69,0.69)"><g transform="" style="fill: rgb(255, 255, 255);">
<g>
	<path d="M100,0v100H0V40.625L100,0z"/>
</g>
</g></g><g transform="translate(276,966) scale(0.69,0.69)"><g transform="" style="fill: rgb(255, 255, 255);">
<g>
	<path d="M100,0v100H0V40.625L100,0z"/>
</g>
</g></g><g transform="translate(414,966) scale(0.69,0.69)"><g transform="" style="fill: rgb(255, 255, 255);">
<g>
	<path d="M95,64.062c0,8.556-3.019,15.851-9.053,21.885S72.618,95,64.062,95H35.938c-8.554,0-15.85-3.019-21.884-9.053
		S5,72.618,5,64.062V35.938c0-8.554,3.018-15.85,9.053-21.884S27.383,5,35.938,5h28.125c8.556,0,15.851,3.018,21.885,9.053
		S95,27.383,95,35.938V64.062z"/>
</g>
</g></g><g transform="translate(552,966) scale(0.69,0.69)"><g transform="" style="fill: rgb(255, 255, 255);">
<g>
	<path d="M100,34.375V0H34.375C24.87,0,16.764,3.353,10.059,10.059S0,24.87,0,34.375V100h100V34.375z"/>
</g>
</g></g><g transform="translate(621,966) scale(0.69,0.69)"><g transform="" style="fill: rgb(255, 255, 255);">
<rect width="100" height="100"/>
</g></g><g transform="translate(759,966) scale(0.69,0.69)"><g transform="" style="fill: rgb(255, 255, 255);">
<g>
	<path d="M100,0v100H0V40.625L100,0z"/>
</g>
</g></g><g transform="translate(966,966) scale(0.69,0.69)"><g transform="" style="fill: rgb(255, 255, 255);">
<g>
	<path d="M95,64.062c0,8.556-3.019,15.851-9.053,21.885S72.618,95,64.062,95H35.938c-8.554,0-15.85-3.019-21.884-9.053
		S5,72.618,5,64.062V35.938c0-8.554,3.018-15.85,9.053-21.884S27.383,5,35.938,5h28.125c8.556,0,15.851,3.018,21.885,9.053
		S95,27.383,95,35.938V64.062z"/>
</g>
</g></g><g transform="translate(1311,966) scale(0.69,0.69)"><g transform="" style="fill: rgb(255, 255, 255);">
<g>
	<path d="M0,100V0h100v59.375L0,100z"/>
</g>
</g></g><g transform="translate(1587,966) scale(0.69,0.69)"><g transform="" style="fill: rgb(255, 255, 255);">
<g>
	<path d="M0,0h100v100H40.625L0,0z"/>
</g>
</g></g><g transform="translate(1656,966) scale(0.69,0.69)"><g transform="" style="fill: rgb(255, 255, 255);">
<g>
	<path d="M100,34.375c0-9.505-3.354-17.611-10.059-24.316S75.131,0,65.625,0H0v100h100V34.375z"/>
</g>
</g></g><g transform="translate(1794,966) scale(0.69,0.69)"><g transform="" style="fill: rgb(255, 255, 255);">
<g>
	<path d="M100,0H0v65.625c0,9.506,3.353,17.611,10.059,24.316S24.87,100,34.375,100H100V0z"/>
</g>
</g></g><g transform="translate(1863,966) scale(0.69,0.69)"><g transform="" style="fill: rgb(255, 255, 255);">
<rect width="100" height="100"/>
</g></g><g transform="translate(1932,966) scale(0.69,0.69)"><g transform="" style="fill: rgb(255, 255, 255);">
<g>
	<path d="M100,0H0v100h65.625c9.506,0,17.611-3.354,24.316-10.059S100,75.131,100,65.625V0z"/>
</g>
</g></g><g transform="translate(0,1035) scale(0.69,0.69)"><g transform="" style="fill: rgb(255, 255, 255);">
<g>
	<path d="M100,0v100H0V40.625L100,0z"/>
</g>
</g></g><g transform="translate(138,1035) scale(0.69,0.69)"><g transform="" style="fill: rgb(255, 255, 255);">
<g>
	<path d="M0,100V0h100v59.375L0,100z"/>
</g>
</g></g><g transform="translate(276,1035) scale(0.69,0.69)"><g transform="" style="fill: rgb(255, 255, 255);">
<rect width="100" height="100"/>
</g></g><g transform="translate(345,1035) scale(0.69,0.69)"><g transform="" style="fill: rgb(255, 255, 255);">
<g>
	<path d="M100,34.375c0-9.505-3.354-17.611-10.059-24.316S75.131,0,65.625,0H0v100h100V34.375z"/>
</g>
</g></g><g transform="translate(552,1035) scale(0.69,0.69)"><g transform="" style="fill: rgb(255, 255, 255);">
<rect width="100" height="100"/>
</g></g><g transform="translate(621,1035) scale(0.69,0.69)"><g transform="" style="fill: rgb(255, 255, 255);">
<rect width="100" height="100"/>
</g></g><g transform="translate(759,1035) scale(0.69,0.69)"><g transform="" style="fill: rgb(255, 255, 255);">
<g>
	<path d="M100,0H0v65.625c0,9.506,3.353,17.611,10.059,24.316S24.87,100,34.375,100H100V0z"/>
</g>
</g></g><g transform="translate(828,1035) scale(0.69,0.69)"><g transform="" style="fill: rgb(255, 255, 255);">
<rect width="100" height="100"/>
</g></g><g transform="translate(897,1035) scale(0.69,0.69)"><g transform="" style="fill: rgb(255, 255, 255);">
<g>
	<path d="M100,100H0V0h59.375L100,100z"/>
</g>
</g></g><g transform="translate(1104,1035) scale(0.69,0.69)"><g transform="" style="fill: rgb(255, 255, 255);">
<g>
	<path d="M95,64.062c0,8.556-3.019,15.851-9.053,21.885S72.618,95,64.062,95H35.938c-8.554,0-15.85-3.019-21.884-9.053
		S5,72.618,5,64.062V35.938c0-8.554,3.018-15.85,9.053-21.884S27.383,5,35.938,5h28.125c8.556,0,15.851,3.018,21.885,9.053
		S95,27.383,95,35.938V64.062z"/>
</g>
</g></g><g transform="translate(1449,1035) scale(0.69,0.69)"><g transform="" style="fill: rgb(255, 255, 255);">
<g>
	<path d="M0,0h100v100H40.625L0,0z"/>
</g>
</g></g><g transform="translate(1518,1035) scale(0.69,0.69)"><g transform="" style="fill: rgb(255, 255, 255);">
<g>
	<path d="M100,100H0V0h59.375L100,100z"/>
</g>
</g></g><g transform="translate(1656,1035) scale(0.69,0.69)"><g transform="" style="fill: rgb(255, 255, 255);">
<rect width="100" height="100"/>
</g></g><g transform="translate(1863,1035) scale(0.69,0.69)"><g transform="" style="fill: rgb(255, 255, 255);">
<rect width="100" height="100"/>
</g></g><g transform="translate(0,1104) scale(0.69,0.69)"><g transform="" style="fill: rgb(255, 255, 255);">
<g>
	<path d="M0,100V0h100v59.375L0,100z"/>
</g>
</g></g><g transform="translate(276,1104) scale(0.69,0.69)"><g transform="" style="fill: rgb(255, 255, 255);">
<g>
	<path d="M100,0H0v65.625c0,9.506,3.353,17.611,10.059,24.316S24.87,100,34.375,100H100V0z"/>
</g>
</g></g><g transform="translate(345,1104) scale(0.69,0.69)"><g transform="" style="fill: rgb(255, 255, 255);">
<rect width="100" height="100"/>
</g></g><g transform="translate(414,1104) scale(0.69,0.69)"><g transform="" style="fill: rgb(255, 255, 255);">
<g>
	<path d="M100,100H0V0h59.375L100,100z"/>
</g>
</g></g><g transform="translate(552,1104) scale(0.69,0.69)"><g transform="" style="fill: rgb(255, 255, 255);">
<rect width="100" height="100"/>
</g></g><g transform="translate(621,1104) scale(0.69,0.69)"><g transform="" style="fill: rgb(255, 255, 255);">
<rect width="100" height="100"/>
</g></g><g transform="translate(1035,1104) scale(0.69,0.69)"><g transform="" style="fill: rgb(255, 255, 255);">
<g>
	<path d="M100,0v100H0V40.625L100,0z"/>
</g>
</g></g><g transform="translate(1173,1104) scale(0.69,0.69)"><g transform="" style="fill: rgb(255, 255, 255);">
<g>
	<path d="M100,34.375V0H34.375C24.87,0,16.764,3.353,10.059,10.059S0,24.87,0,34.375V100h100V34.375z"/>
</g>
</g></g><g transform="translate(1242,1104) scale(0.69,0.69)"><g transform="" style="fill: rgb(255, 255, 255);">
<rect width="100" height="100"/>
</g></g><g transform="translate(1311,1104) scale(0.69,0.69)"><g transform="" style="fill: rgb(255, 255, 255);">
<rect width="100" height="100"/>
</g></g><g transform="translate(1380,1104) scale(0.69,0.69)"><g transform="" style="fill: rgb(255, 255, 255);">
<g>
	<path d="M100,34.375c0-9.505-3.354-17.611-10.059-24.316S75.131,0,65.625,0H0v100h100V34.375z"/>
</g>
</g></g><g transform="translate(1656,1104) scale(0.69,0.69)"><g transform="" style="fill: rgb(255, 255, 255);">
<g>
	<path d="M100,0H0v65.625c0,9.506,3.353,17.611,10.059,24.316S24.87,100,34.375,100H100V0z"/>
</g>
</g></g><g transform="translate(1725,1104) scale(0.69,0.69)"><g transform="" style="fill: rgb(255, 255, 255);">
<g>
	<path d="M100,34.375c0-9.505-3.354-17.611-10.059-24.316S75.131,0,65.625,0H0v100h100V34.375z"/>
</g>
</g></g><g transform="translate(1863,1104) scale(0.69,0.69)"><g transform="" style="fill: rgb(255, 255, 255);">
<rect width="100" height="100"/>
</g></g><g transform="translate(69,1173) scale(0.69,0.69)"><g transform="" style="fill: rgb(255, 255, 255);">
<g>
	<path d="M0,0h100v100H40.625L0,0z"/>
</g>
</g></g><g transform="translate(138,1173) scale(0.69,0.69)"><g transform="" style="fill: rgb(255, 255, 255);">
<rect width="100" height="100"/>
</g></g><g transform="translate(207,1173) scale(0.69,0.69)"><g transform="" style="fill: rgb(255, 255, 255);">
<g>
	<path d="M100,100H0V0h59.375L100,100z"/>
</g>
</g></g><g transform="translate(483,1173) scale(0.69,0.69)"><g transform="" style="fill: rgb(255, 255, 255);">
<g>
	<path d="M0,0h100v100H40.625L0,0z"/>
</g>
</g></g><g transform="translate(552,1173) scale(0.69,0.69)"><g transform="" style="fill: rgb(255, 255, 255);">
<rect width="100" height="100"/>
</g></g><g transform="translate(621,1173) scale(0.69,0.69)"><g transform="" style="fill: rgb(255, 255, 255);">
<rect width="100" height="100"/>
</g></g><g transform="translate(690,1173) scale(0.69,0.69)"><g transform="" style="fill: rgb(255, 255, 255);">
<rect width="100" height="100"/>
</g></g><g transform="translate(759,1173) scale(0.69,0.69)"><g transform="" style="fill: rgb(255, 255, 255);">
<rect width="100" height="100"/>
</g></g><g transform="translate(828,1173) scale(0.69,0.69)"><g transform="" style="fill: rgb(255, 255, 255);">
<rect width="100" height="100"/>
</g></g><g transform="translate(897,1173) scale(0.69,0.69)"><g transform="" style="fill: rgb(255, 255, 255);">
<g>
	<path d="M100,100H0V0h59.375L100,100z"/>
</g>
</g></g><g transform="translate(1035,1173) scale(0.69,0.69)"><g transform="" style="fill: rgb(255, 255, 255);">
<rect width="100" height="100"/>
</g></g><g transform="translate(1104,1173) scale(0.69,0.69)"><g transform="" style="fill: rgb(255, 255, 255);">
<rect width="100" height="100"/>
</g></g><g transform="translate(1173,1173) scale(0.69,0.69)"><g transform="" style="fill: rgb(255, 255, 255);">
<rect width="100" height="100"/>
</g></g><g transform="translate(1242,1173) scale(0.69,0.69)"><g transform="" style="fill: rgb(255, 255, 255);">
<g>
	<path d="M100,0H0v100h65.625c9.506,0,17.611-3.354,24.316-10.059S100,75.131,100,65.625V0z"/>
</g>
</g></g><g transform="translate(1380,1173) scale(0.69,0.69)"><g transform="" style="fill: rgb(255, 255, 255);">
<g>
	<path d="M0,100V0h100v59.375L0,100z"/>
</g>
</g></g><g transform="translate(1587,1173) scale(0.69,0.69)"><g transform="" style="fill: rgb(255, 255, 255);">
<g>
	<path d="M95,64.062c0,8.556-3.019,15.851-9.053,21.885S72.618,95,64.062,95H35.938c-8.554,0-15.85-3.019-21.884-9.053
		S5,72.618,5,64.062V35.938c0-8.554,3.018-15.85,9.053-21.884S27.383,5,35.938,5h28.125c8.556,0,15.851,3.018,21.885,9.053
		S95,27.383,95,35.938V64.062z"/>
</g>
</g></g><g transform="translate(1725,1173) scale(0.69,0.69)"><g transform="" style="fill: rgb(255, 255, 255);">
<g>
	<path d="M100,0H0v65.625c0,9.506,3.353,17.611,10.059,24.316S24.87,100,34.375,100H100V0z"/>
</g>
</g></g><g transform="translate(1794,1173) scale(0.69,0.69)"><g transform="" style="fill: rgb(255, 255, 255);">
<rect width="100" height="100"/>
</g></g><g transform="translate(1863,1173) scale(0.69,0.69)"><g transform="" style="fill: rgb(255, 255, 255);">
<g>
	<path d="M100,0H0v100h65.625c9.506,0,17.611-3.354,24.316-10.059S100,75.131,100,65.625V0z"/>
</g>
</g></g><g transform="translate(0,1242) scale(0.69,0.69)"><g transform="" style="fill: rgb(255, 255, 255);">
<g>
	<path d="M95,64.062c0,8.556-3.019,15.851-9.053,21.885S72.618,95,64.062,95H35.938c-8.554,0-15.85-3.019-21.884-9.053
		S5,72.618,5,64.062V35.938c0-8.554,3.018-15.85,9.053-21.884S27.383,5,35.938,5h28.125c8.556,0,15.851,3.018,21.885,9.053
		S95,27.383,95,35.938V64.062z"/>
</g>
</g></g><g transform="translate(276,1242) scale(0.69,0.69)"><g transform="" style="fill: rgb(255, 255, 255);">
<g>
	<path d="M100,0v100H0V40.625L100,0z"/>
</g>
</g></g><g transform="translate(414,1242) scale(0.69,0.69)"><g transform="" style="fill: rgb(255, 255, 255);">
<g>
	<path d="M95,64.062c0,8.556-3.019,15.851-9.053,21.885S72.618,95,64.062,95H35.938c-8.554,0-15.85-3.019-21.884-9.053
		S5,72.618,5,64.062V35.938c0-8.554,3.018-15.85,9.053-21.884S27.383,5,35.938,5h28.125c8.556,0,15.851,3.018,21.885,9.053
		S95,27.383,95,35.938V64.062z"/>
</g>
</g></g><g transform="translate(621,1242) scale(0.69,0.69)"><g transform="" style="fill: rgb(255, 255, 255);">
<g>
	<path d="M0,100V0h100v59.375L0,100z"/>
</g>
</g></g><g transform="translate(759,1242) scale(0.69,0.69)"><g transform="" style="fill: rgb(255, 255, 255);">
<g>
	<path d="M0,100V0h100v59.375L0,100z"/>
</g>
</g></g><g transform="translate(1035,1242) scale(0.69,0.69)"><g transform="" style="fill: rgb(255, 255, 255);">
<rect width="100" height="100"/>
</g></g><g transform="translate(1173,1242) scale(0.69,0.69)"><g transform="" style="fill: rgb(255, 255, 255);">
<rect width="100" height="100"/>
</g></g><g transform="translate(1518,1242) scale(0.69,0.69)"><g transform="" style="fill: rgb(255, 255, 255);">
<g>
	<path d="M100,0v100H0V40.625L100,0z"/>
</g>
</g></g><g transform="translate(1656,1242) scale(0.69,0.69)"><g transform="" style="fill: rgb(255, 255, 255);">
<g>
	<path d="M100,0v100H0V40.625L100,0z"/>
</g>
</g></g><g transform="translate(1794,1242) scale(0.69,0.69)"><g transform="" style="fill: rgb(255, 255, 255);">
<rect width="100" height="100"/>
</g></g><g transform="translate(207,1311) scale(0.69,0.69)"><g transform="" style="fill: rgb(255, 255, 255);">
<g>
	<path d="M0,0h100v100H40.625L0,0z"/>
</g>
</g></g><g transform="translate(276,1311) scale(0.69,0.69)"><g transform="" style="fill: rgb(255, 255, 255);">
<rect width="100" height="100"/>
</g></g><g transform="translate(483,1311) scale(0.69,0.69)"><g transform="" style="fill: rgb(255, 255, 255);">
<g>
	<path d="M100,0v100H0V40.625L100,0z"/>
</g>
</g></g><g transform="translate(690,1311) scale(0.69,0.69)"><g transform="" style="fill: rgb(255, 255, 255);">
<g>
	<path d="M95,64.062c0,8.556-3.019,15.851-9.053,21.885S72.618,95,64.062,95H35.938c-8.554,0-15.85-3.019-21.884-9.053
		S5,72.618,5,64.062V35.938c0-8.554,3.018-15.85,9.053-21.884S27.383,5,35.938,5h28.125c8.556,0,15.851,3.018,21.885,9.053
		S95,27.383,95,35.938V64.062z"/>
</g>
</g></g><g transform="translate(1035,1311) scale(0.69,0.69)"><g transform="" style="fill: rgb(255, 255, 255);">
<g>
	<path d="M0,100V0h100v59.375L0,100z"/>
</g>
</g></g><g transform="translate(1173,1311) scale(0.69,0.69)"><g transform="" style="fill: rgb(255, 255, 255);">
<rect width="100" height="100"/>
</g></g><g transform="translate(1242,1311) scale(0.69,0.69)"><g transform="" style="fill: rgb(255, 255, 255);">
<g>
	<path d="M100,34.375c0-9.505-3.354-17.611-10.059-24.316S75.131,0,65.625,0H0v100h100V34.375z"/>
</g>
</g></g><g transform="translate(1518,1311) scale(0.69,0.69)"><g transform="" style="fill: rgb(255, 255, 255);">
<rect width="100" height="100"/>
</g></g><g transform="translate(1587,1311) scale(0.69,0.69)"><g transform="" style="fill: rgb(255, 255, 255);">
<rect width="100" height="100"/>
</g></g><g transform="translate(1656,1311) scale(0.69,0.69)"><g transform="" style="fill: rgb(255, 255, 255);">
<rect width="100" height="100"/>
</g></g><g transform="translate(1794,1311) scale(0.69,0.69)"><g transform="" style="fill: rgb(255, 255, 255);">
<rect width="100" height="100"/>
</g></g><g transform="translate(69,1380) scale(0.69,0.69)"><g transform="" style="fill: rgb(255, 255, 255);">
<g>
	<path d="M95,64.062c0,8.556-3.019,15.851-9.053,21.885S72.618,95,64.062,95H35.938c-8.554,0-15.85-3.019-21.884-9.053
		S5,72.618,5,64.062V35.938c0-8.554,3.018-15.85,9.053-21.884S27.383,5,35.938,5h28.125c8.556,0,15.851,3.018,21.885,9.053
		S95,27.383,95,35.938V64.062z"/>
</g>
</g></g><g transform="translate(276,1380) scale(0.69,0.69)"><g transform="" style="fill: rgb(255, 255, 255);">
<g>
	<path d="M0,100V0h100v59.375L0,100z"/>
</g>
</g></g><g transform="translate(414,1380) scale(0.69,0.69)"><g transform="" style="fill: rgb(255, 255, 255);">
<g>
	<path d="M0,0h100v100H40.625L0,0z"/>
</g>
</g></g><g transform="translate(483,1380) scale(0.69,0.69)"><g transform="" style="fill: rgb(255, 255, 255);">
<rect width="100" height="100"/>
</g></g><g transform="translate(552,1380) scale(0.69,0.69)"><g transform="" style="fill: rgb(255, 255, 255);">
<rect width="100" height="100"/>
</g></g><g transform="translate(621,1380) scale(0.69,0.69)"><g transform="" style="fill: rgb(255, 255, 255);">
<g>
	<path d="M100,34.375c0-9.505-3.354-17.611-10.059-24.316S75.131,0,65.625,0H0v100h100V34.375z"/>
</g>
</g></g><g transform="translate(897,1380) scale(0.69,0.69)"><g transform="" style="fill: rgb(255, 255, 255);">
<g>
	<path d="M100,0v100H0V40.625L100,0z"/>
</g>
</g></g><g transform="translate(1173,1380) scale(0.69,0.69)"><g transform="" style="fill: rgb(255, 255, 255);">
<g>
	<path d="M100,0H0v65.625c0,9.506,3.353,17.611,10.059,24.316S24.87,100,34.375,100H100V0z"/>
</g>
</g></g><g transform="translate(1242,1380) scale(0.69,0.69)"><g transform="" style="fill: rgb(255, 255, 255);">
<rect width="100" height="100"/>
</g></g><g transform="translate(1311,1380) scale(0.69,0.69)"><g transform="" style="fill: rgb(255, 255, 255);">
<rect width="100" height="100"/>
</g></g><g transform="translate(1380,1380) scale(0.69,0.69)"><g transform="" style="fill: rgb(255, 255, 255);">
<rect width="100" height="100"/>
</g></g><g transform="translate(1449,1380) scale(0.69,0.69)"><g transform="" style="fill: rgb(255, 255, 255);">
<rect width="100" height="100"/>
</g></g><g transform="translate(1518,1380) scale(0.69,0.69)"><g transform="" style="fill: rgb(255, 255, 255);">
<rect width="100" height="100"/>
</g></g><g transform="translate(1587,1380) scale(0.69,0.69)"><g transform="" style="fill: rgb(255, 255, 255);">
<rect width="100" height="100"/>
</g></g><g transform="translate(1656,1380) scale(0.69,0.69)"><g transform="" style="fill: rgb(255, 255, 255);">
<rect width="100" height="100"/>
</g></g><g transform="translate(1725,1380) scale(0.69,0.69)"><g transform="" style="fill: rgb(255, 255, 255);">
<rect width="100" height="100"/>
</g></g><g transform="translate(1794,1380) scale(0.69,0.69)"><g transform="" style="fill: rgb(255, 255, 255);">
<rect width="100" height="100"/>
</g></g><g transform="translate(552,1449) scale(0.69,0.69)"><g transform="" style="fill: rgb(255, 255, 255);">
<rect width="100" height="100"/>
</g></g><g transform="translate(621,1449) scale(0.69,0.69)"><g transform="" style="fill: rgb(255, 255, 255);">
<rect width="100" height="100"/>
</g></g><g transform="translate(690,1449) scale(0.69,0.69)"><g transform="" style="fill: rgb(255, 255, 255);">
<rect width="100" height="100"/>
</g></g><g transform="translate(759,1449) scale(0.69,0.69)"><g transform="" style="fill: rgb(255, 255, 255);">
<g>
	<path d="M100,100H0V0h59.375L100,100z"/>
</g>
</g></g><g transform="translate(897,1449) scale(0.69,0.69)"><g transform="" style="fill: rgb(255, 255, 255);">
<rect width="100" height="100"/>
</g></g><g transform="translate(966,1449) scale(0.69,0.69)"><g transform="" style="fill: rgb(255, 255, 255);">
<g>
	<path d="M100,100H0V0h59.375L100,100z"/>
</g>
</g></g><g transform="translate(1104,1449) scale(0.69,0.69)"><g transform="" style="fill: rgb(255, 255, 255);">
<g>
	<path d="M100,0v100H0V40.625L100,0z"/>
</g>
</g></g><g transform="translate(1311,1449) scale(0.69,0.69)"><g transform="" style="fill: rgb(255, 255, 255);">
<rect width="100" height="100"/>
</g></g><g transform="translate(1380,1449) scale(0.69,0.69)"><g transform="" style="fill: rgb(255, 255, 255);">
<rect width="100" height="100"/>
</g></g><g transform="translate(1656,1449) scale(0.69,0.69)"><g transform="" style="fill: rgb(255, 255, 255);">
<rect width="100" height="100"/>
</g></g><g transform="translate(1725,1449) scale(0.69,0.69)"><g transform="" style="fill: rgb(255, 255, 255);">
<rect width="100" height="100"/>
</g></g><g transform="translate(1794,1449) scale(0.69,0.69)"><g transform="" style="fill: rgb(255, 255, 255);">
<rect width="100" height="100"/>
</g></g><g transform="translate(1863,1449) scale(0.69,0.69)"><g transform="" style="fill: rgb(255, 255, 255);">
<rect width="100" height="100"/>
</g></g><g transform="translate(1932,1449) scale(0.69,0.69)"><g transform="" style="fill: rgb(255, 255, 255);">
<g>
	<path d="M100,100H0V0h59.375L100,100z"/>
</g>
</g></g><g transform="translate(552,1518) scale(0.69,0.69)"><g transform="" style="fill: rgb(255, 255, 255);">
<rect width="100" height="100"/>
</g></g><g transform="translate(828,1518) scale(0.69,0.69)"><g transform="" style="fill: rgb(255, 255, 255);">
<g>
	<path d="M100,34.375V0H34.375C24.87,0,16.764,3.353,10.059,10.059S0,24.87,0,34.375V100h100V34.375z"/>
</g>
</g></g><g transform="translate(897,1518) scale(0.69,0.69)"><g transform="" style="fill: rgb(255, 255, 255);">
<g>
	<path d="M100,0H0v100h65.625c9.506,0,17.611-3.354,24.316-10.059S100,75.131,100,65.625V0z"/>
</g>
</g></g><g transform="translate(1104,1518) scale(0.69,0.69)"><g transform="" style="fill: rgb(255, 255, 255);">
<rect width="100" height="100"/>
</g></g><g transform="translate(1173,1518) scale(0.69,0.69)"><g transform="" style="fill: rgb(255, 255, 255);">
<g>
	<path d="M100,100H0V0h59.375L100,100z"/>
</g>
</g></g><g transform="translate(1311,1518) scale(0.69,0.69)"><g transform="" style="fill: rgb(255, 255, 255);">
<g>
	<path d="M100,0H0v65.625c0,9.506,3.353,17.611,10.059,24.316S24.87,100,34.375,100H100V0z"/>
</g>
</g></g><g transform="translate(1380,1518) scale(0.69,0.69)"><g transform="" style="fill: rgb(255, 255, 255);">
<rect width="100" height="100"/>
</g></g><g transform="translate(1518,1518) scale(0.69,0.69)"><g transform="" style="fill: rgb(255, 255, 255);">
<g>
	<path d="M95,64.062c0,8.556-3.019,15.851-9.053,21.885S72.618,95,64.062,95H35.938c-8.554,0-15.85-3.019-21.884-9.053
		S5,72.618,5,64.062V35.938c0-8.554,3.018-15.85,9.053-21.884S27.383,5,35.938,5h28.125c8.556,0,15.851,3.018,21.885,9.053
		S95,27.383,95,35.938V64.062z"/>
</g>
</g></g><g transform="translate(1656,1518) scale(0.69,0.69)"><g transform="" style="fill: rgb(255, 255, 255);">
<rect width="100" height="100"/>
</g></g><g transform="translate(1725,1518) scale(0.69,0.69)"><g transform="" style="fill: rgb(255, 255, 255);">
<rect width="100" height="100"/>
</g></g><g transform="translate(1863,1518) scale(0.69,0.69)"><g transform="" style="fill: rgb(255, 255, 255);">
<rect width="100" height="100"/>
</g></g><g transform="translate(552,1587) scale(0.69,0.69)"><g transform="" style="fill: rgb(255, 255, 255);">
<g>
	<path d="M0,100V0h100v59.375L0,100z"/>
</g>
</g></g><g transform="translate(828,1587) scale(0.69,0.69)"><g transform="" style="fill: rgb(255, 255, 255);">
<rect width="100" height="100"/>
</g></g><g transform="translate(1104,1587) scale(0.69,0.69)"><g transform="" style="fill: rgb(255, 255, 255);">
<g>
	<path d="M0,100V0h100v59.375L0,100z"/>
</g>
</g></g><g transform="translate(1380,1587) scale(0.69,0.69)"><g transform="" style="fill: rgb(255, 255, 255);">
<rect width="100" height="100"/>
</g></g><g transform="translate(1656,1587) scale(0.69,0.69)"><g transform="" style="fill: rgb(255, 255, 255);">
<rect width="100" height="100"/>
</g></g><g transform="translate(1725,1587) scale(0.69,0.69)"><g transform="" style="fill: rgb(255, 255, 255);">
<g>
	<path d="M100,0H0v100h65.625c9.506,0,17.611-3.354,24.316-10.059S100,75.131,100,65.625V0z"/>
</g>
</g></g><g transform="translate(1863,1587) scale(0.69,0.69)"><g transform="" style="fill: rgb(255, 255, 255);">
<rect width="100" height="100"/>
</g></g><g transform="translate(1932,1587) scale(0.69,0.69)"><g transform="" style="fill: rgb(255, 255, 255);">
<g>
	<path d="M100,100H0V0h59.375L100,100z"/>
</g>
</g></g><g transform="translate(759,1656) scale(0.69,0.69)"><g transform="" style="fill: rgb(255, 255, 255);">
<g>
	<path d="M100,34.375V0H34.375C24.87,0,16.764,3.353,10.059,10.059S0,24.87,0,34.375V100h100V34.375z"/>
</g>
</g></g><g transform="translate(828,1656) scale(0.69,0.69)"><g transform="" style="fill: rgb(255, 255, 255);">
<g>
	<path d="M100,0H0v100h65.625c9.506,0,17.611-3.354,24.316-10.059S100,75.131,100,65.625V0z"/>
</g>
</g></g><g transform="translate(966,1656) scale(0.69,0.69)"><g transform="" style="fill: rgb(255, 255, 255);">
<g>
	<path d="M100,34.375V0H34.375C24.87,0,16.764,3.353,10.059,10.059S0,24.87,0,34.375V100h100V34.375z"/>
</g>
</g></g><g transform="translate(1035,1656) scale(0.69,0.69)"><g transform="" style="fill: rgb(255, 255, 255);">
<g>
	<path d="M100,34.375c0-9.505-3.354-17.611-10.059-24.316S75.131,0,65.625,0H0v100h100V34.375z"/>
</g>
</g></g><g transform="translate(1173,1656) scale(0.69,0.69)"><g transform="" style="fill: rgb(255, 255, 255);">
<g>
	<path d="M95,64.062c0,8.556-3.019,15.851-9.053,21.885S72.618,95,64.062,95H35.938c-8.554,0-15.85-3.019-21.884-9.053
		S5,72.618,5,64.062V35.938c0-8.554,3.018-15.85,9.053-21.884S27.383,5,35.938,5h28.125c8.556,0,15.851,3.018,21.885,9.053
		S95,27.383,95,35.938V64.062z"/>
</g>
</g></g><g transform="translate(1380,1656) scale(0.69,0.69)"><g transform="" style="fill: rgb(255, 255, 255);">
<rect width="100" height="100"/>
</g></g><g transform="translate(1449,1656) scale(0.69,0.69)"><g transform="" style="fill: rgb(255, 255, 255);">
<rect width="100" height="100"/>
</g></g><g transform="translate(1518,1656) scale(0.69,0.69)"><g transform="" style="fill: rgb(255, 255, 255);">
<rect width="100" height="100"/>
</g></g><g transform="translate(1587,1656) scale(0.69,0.69)"><g transform="" style="fill: rgb(255, 255, 255);">
<rect width="100" height="100"/>
</g></g><g transform="translate(1656,1656) scale(0.69,0.69)"><g transform="" style="fill: rgb(255, 255, 255);">
<rect width="100" height="100"/>
</g></g><g transform="translate(1794,1656) scale(0.69,0.69)"><g transform="" style="fill: rgb(255, 255, 255);">
<g>
	<path d="M0,0h100v100H40.625L0,0z"/>
</g>
</g></g><g transform="translate(1863,1656) scale(0.69,0.69)"><g transform="" style="fill: rgb(255, 255, 255);">
<g>
	<path d="M100,0H0v100h65.625c9.506,0,17.611-3.354,24.316-10.059S100,75.131,100,65.625V0z"/>
</g>
</g></g><g transform="translate(552,1725) scale(0.69,0.69)"><g transform="" style="fill: rgb(255, 255, 255);">
<g>
	<path d="M100,0v100H0V40.625L100,0z"/>
</g>
</g></g><g transform="translate(759,1725) scale(0.69,0.69)"><g transform="" style="fill: rgb(255, 255, 255);">
<rect width="100" height="100"/>
</g></g><g transform="translate(897,1725) scale(0.69,0.69)"><g transform="" style="fill: rgb(255, 255, 255);">
<g>
	<path d="M0,0h100v100H40.625L0,0z"/>
</g>
</g></g><g transform="translate(966,1725) scale(0.69,0.69)"><g transform="" style="fill: rgb(255, 255, 255);">
<rect width="100" height="100"/>
</g></g><g transform="translate(1035,1725) scale(0.69,0.69)"><g transform="" style="fill: rgb(255, 255, 255);">
<rect width="100" height="100"/>
</g></g><g transform="translate(1104,1725) scale(0.69,0.69)"><g transform="" style="fill: rgb(255, 255, 255);">
<g>
	<path d="M100,34.375c0-9.505-3.354-17.611-10.059-24.316S75.131,0,65.625,0H0v100h100V34.375z"/>
</g>
</g></g><g transform="translate(1311,1725) scale(0.69,0.69)"><g transform="" style="fill: rgb(255, 255, 255);">
<g>
	<path d="M100,34.375V0H34.375C24.87,0,16.764,3.353,10.059,10.059S0,24.87,0,34.375V100h100V34.375z"/>
</g>
</g></g><g transform="translate(1380,1725) scale(0.69,0.69)"><g transform="" style="fill: rgb(255, 255, 255);">
<rect width="100" height="100"/>
</g></g><g transform="translate(1449,1725) scale(0.69,0.69)"><g transform="" style="fill: rgb(255, 255, 255);">
<g>
	<path d="M100,0H0v100h65.625c9.506,0,17.611-3.354,24.316-10.059S100,75.131,100,65.625V0z"/>
</g>
</g></g><g transform="translate(1656,1725) scale(0.69,0.69)"><g transform="" style="fill: rgb(255, 255, 255);">
<g>
	<path d="M100,0H0v65.625c0,9.506,3.353,17.611,10.059,24.316S24.87,100,34.375,100H100V0z"/>
</g>
</g></g><g transform="translate(1725,1725) scale(0.69,0.69)"><g transform="" style="fill: rgb(255, 255, 255);">
<g>
	<path d="M100,100H0V0h59.375L100,100z"/>
</g>
</g></g><g transform="translate(1932,1725) scale(0.69,0.69)"><g transform="" style="fill: rgb(255, 255, 255);">
<g>
	<path d="M100,0v100H0V40.625L100,0z"/>
</g>
</g></g><g transform="translate(552,1794) scale(0.69,0.69)"><g transform="" style="fill: rgb(255, 255, 255);">
<g>
	<path d="M0,100V0h100v59.375L0,100z"/>
</g>
</g></g><g transform="translate(759,1794) scale(0.69,0.69)"><g transform="" style="fill: rgb(255, 255, 255);">
<rect width="100" height="100"/>
</g></g><g transform="translate(828,1794) scale(0.69,0.69)"><g transform="" style="fill: rgb(255, 255, 255);">
<g>
	<path d="M100,34.375c0-9.505-3.354-17.611-10.059-24.316S75.131,0,65.625,0H0v100h100V34.375z"/>
</g>
</g></g><g transform="translate(1104,1794) scale(0.69,0.69)"><g transform="" style="fill: rgb(255, 255, 255);">
<rect width="100" height="100"/>
</g></g><g transform="translate(1173,1794) scale(0.69,0.69)"><g transform="" style="fill: rgb(255, 255, 255);">
<rect width="100" height="100"/>
</g></g><g transform="translate(1242,1794) scale(0.69,0.69)"><g transform="" style="fill: rgb(255, 255, 255);">
<rect width="100" height="100"/>
</g></g><g transform="translate(1311,1794) scale(0.69,0.69)"><g transform="" style="fill: rgb(255, 255, 255);">
<rect width="100" height="100"/>
</g></g><g transform="translate(1380,1794) scale(0.69,0.69)"><g transform="" style="fill: rgb(255, 255, 255);">
<rect width="100" height="100"/>
</g></g><g transform="translate(1587,1794) scale(0.69,0.69)"><g transform="" style="fill: rgb(255, 255, 255);">
<g>
	<path d="M100,0v100H0V40.625L100,0z"/>
</g>
</g></g><g transform="translate(1794,1794) scale(0.69,0.69)"><g transform="" style="fill: rgb(255, 255, 255);">
<g>
	<path d="M95,64.062c0,8.556-3.019,15.851-9.053,21.885S72.618,95,64.062,95H35.938c-8.554,0-15.85-3.019-21.884-9.053
		S5,72.618,5,64.062V35.938c0-8.554,3.018-15.85,9.053-21.884S27.383,5,35.938,5h28.125c8.556,0,15.851,3.018,21.885,9.053
		S95,27.383,95,35.938V64.062z"/>
</g>
</g></g><g transform="translate(1932,1794) scale(0.69,0.69)"><g transform="" style="fill: rgb(255, 255, 255);">
<g>
	<path d="M0,100V0h100v59.375L0,100z"/>
</g>
</g></g><g transform="translate(759,1863) scale(0.69,0.69)"><g transform="" style="fill: rgb(255, 255, 255);">
<g>
	<path d="M100,0H0v65.625c0,9.506,3.353,17.611,10.059,24.316S24.87,100,34.375,100H100V0z"/>
</g>
</g></g><g transform="translate(828,1863) scale(0.69,0.69)"><g transform="" style="fill: rgb(255, 255, 255);">
<rect width="100" height="100"/>
</g></g><g transform="translate(1035,1863) scale(0.69,0.69)"><g transform="" style="fill: rgb(255, 255, 255);">
<g>
	<path d="M100,34.375V0H34.375C24.87,0,16.764,3.353,10.059,10.059S0,24.87,0,34.375V100h100V34.375z"/>
</g>
</g></g><g transform="translate(1104,1863) scale(0.69,0.69)"><g transform="" style="fill: rgb(255, 255, 255);">
<g>
	<path d="M100,0H0v100h65.625c9.506,0,17.611-3.354,24.316-10.059S100,75.131,100,65.625V0z"/>
</g>
</g></g><g transform="translate(1380,1863) scale(0.69,0.69)"><g transform="" style="fill: rgb(255, 255, 255);">
<rect width="100" height="100"/>
</g></g><g transform="translate(1587,1863) scale(0.69,0.69)"><g transform="" style="fill: rgb(255, 255, 255);">
<rect width="100" height="100"/>
</g></g><g transform="translate(1656,1863) scale(0.69,0.69)"><g transform="" style="fill: rgb(255, 255, 255);">
<rect width="100" height="100"/>
</g></g><g transform="translate(1725,1863) scale(0.69,0.69)"><g transform="" style="fill: rgb(255, 255, 255);">
<g>
	<path d="M100,100H0V0h59.375L100,100z"/>
</g>
</g></g><g transform="translate(1863,1863) scale(0.69,0.69)"><g transform="" style="fill: rgb(255, 255, 255);">
<g>
	<path d="M100,0v100H0V40.625L100,0z"/>
</g>
</g></g><g transform="translate(552,1932) scale(0.69,0.69)"><g transform="" style="fill: rgb(255, 255, 255);">
<g>
	<path d="M95,64.062c0,8.556-3.019,15.851-9.053,21.885S72.618,95,64.062,95H35.938c-8.554,0-15.85-3.019-21.884-9.053
		S5,72.618,5,64.062V35.938c0-8.554,3.018-15.85,9.053-21.884S27.383,5,35.938,5h28.125c8.556,0,15.851,3.018,21.885,9.053
		S95,27.383,95,35.938V64.062z"/>
</g>
</g></g><g transform="translate(828,1932) scale(0.69,0.69)"><g transform="" style="fill: rgb(255, 255, 255);">
<g>
	<path d="M0,100V0h100v59.375L0,100z"/>
</g>
</g></g><g transform="translate(966,1932) scale(0.69,0.69)"><g transform="" style="fill: rgb(255, 255, 255);">
<g>
	<path d="M0,0h100v100H40.625L0,0z"/>
</g>
</g></g><g transform="translate(1035,1932) scale(0.69,0.69)"><g transform="" style="fill: rgb(255, 255, 255);">
<g>
	<path d="M100,0H0v100h65.625c9.506,0,17.611-3.354,24.316-10.059S100,75.131,100,65.625V0z"/>
</g>
</g></g><g transform="translate(1242,1932) scale(0.69,0.69)"><g transform="" style="fill: rgb(255, 255, 255);">
<g>
	<path d="M0,0h100v100H40.625L0,0z"/>
</g>
</g></g><g transform="translate(1311,1932) scale(0.69,0.69)"><g transform="" style="fill: rgb(255, 255, 255);">
<rect width="100" height="100"/>
</g></g><g transform="translate(1380,1932) scale(0.69,0.69)"><g transform="" style="fill: rgb(255, 255, 255);">
<rect width="100" height="100"/>
</g></g><g transform="translate(1449,1932) scale(0.69,0.69)"><g transform="" style="fill: rgb(255, 255, 255);">
<rect width="100" height="100"/>
</g></g><g transform="translate(1518,1932) scale(0.69,0.69)"><g transform="" style="fill: rgb(255, 255, 255);">
<rect width="100" height="100"/>
</g></g><g transform="translate(1587,1932) scale(0.69,0.69)"><g transform="" style="fill: rgb(255, 255, 255);">
<g>
	<path d="M100,0H0v100h65.625c9.506,0,17.611-3.354,24.316-10.059S100,75.131,100,65.625V0z"/>
</g>
</g></g><g transform="translate(1863,1932) scale(0.69,0.69)"><g transform="" style="fill: rgb(255, 255, 255);">
<g>
	<path d="M0,100V0h100v59.375L0,100z"/>
</g>
</g></g><g transform="translate(0,0) scale(4.83, 4.83)"><g transform="" style="fill: rgb(255, 255, 255);">
<path d="M21.475,99.992c-6.648,0-12.964-6.852-13.958-13.207L0.011-0.008l88.112,5.649c6.212,0.931,11.096,6.804,11.104,13.848
	l0.762,80.503H21.475z M85.706,85.71l-0.544-57.492c-0.005-5.029-3.495-9.233-7.931-9.898l-62.938-4.03l5.36,61.98
	c0.71,4.536,5.222,9.44,9.971,9.44H85.706z"/>
</g></g><g transform="translate(1518,0) scale(4.83, 4.83)"><g transform=" translate(100, 0) scale(-1,1) " style="fill: rgb(255, 255, 255);">
<path d="M21.475,99.992c-6.648,0-12.964-6.852-13.958-13.207L0.011-0.008l88.112,5.649c6.212,0.931,11.096,6.804,11.104,13.848
	l0.762,80.503H21.475z M85.706,85.71l-0.544-57.492c-0.005-5.029-3.495-9.233-7.931-9.898l-62.938-4.03l5.36,61.98
	c0.71,4.536,5.222,9.44,9.971,9.44H85.706z"/>
</g></g><g transform="translate(0,1518) scale(4.83, 4.83)"><g transform=" translate(0,100) scale(1,-1) " style="fill: rgb(255, 255, 255);">
<path d="M21.475,99.992c-6.648,0-12.964-6.852-13.958-13.207L0.011-0.008l88.112,5.649c6.212,0.931,11.096,6.804,11.104,13.848
	l0.762,80.503H21.475z M85.706,85.71l-0.544-57.492c-0.005-5.029-3.495-9.233-7.931-9.898l-62.938-4.03l5.36,61.98
	c0.71,4.536,5.222,9.44,9.971,9.44H85.706z"/>
</g></g><g transform="translate(138,138) scale(2.07, 2.07)"><g transform="" style="fill: rgb(255, 255, 255);">
<polygon points="51.156,100 0,49.844 0,0 49.844,0 100,51.156 100,100 "/>
</g></g><g transform="translate(1656,138) scale(2.07, 2.07)"><g transform=" translate(100, 0) scale(-1,1) " style="fill: rgb(255, 255, 255);">
<polygon points="51.156,100 0,49.844 0,0 49.844,0 100,51.156 100,100 "/>
</g></g><g transform="translate(138,1656) scale(2.07, 2.07)"><g transform=" translate(0,100) scale(1,-1) " style="fill: rgb(255, 255, 255);">
<polygon points="51.156,100 0,49.844 0,0 49.844,0 100,51.156 100,100 "/>
</g></g></g></mask></defs></g><rect x="0" y="0" width="2001" height="2001" fill="url(#grad)" mask="url(#gmask)" /></g></svg>